<svg width="52" height="64" viewBox="0 0 52 64" fill="none" xmlns="http://www.w3.org/2000/svg">
<path fill-rule="evenodd" clip-rule="evenodd" d="M52 0.2C52 0.0895431 51.9105 0 51.8 0H0.2C0.0895431 0 0 0.0895434 0 0.2V41.6997C0 54.9348 12.7072 64.0229 26.0449 64C39.3559 63.9771 52 54.9348 52 41.6997V0.2ZM0.91848 20.034C0.808023 20.034 0.71848 19.9444 0.71848 19.834V0.83456C0.71848 0.724104 0.808025 0.63456 0.918481 0.63456H51.0815C51.192 0.63456 51.2815 0.724105 51.2815 0.834561V19.834C51.2815 19.9444 51.192 20.034 51.0815 20.034H0.91848ZM0.71848 21.0498C0.71848 20.9394 0.808023 20.8498 0.91848 20.8498H25.5755C25.6859 20.8498 25.7755 20.9394 25.7755 21.0498V62.8934C25.7755 63.0039 25.687 63.0935 25.5766 63.0926C14.7459 63.0048 1.52184 55.7552 0.71848 41.6997V21.0498ZM51.2815 21.0498C51.2815 20.9394 51.192 20.8498 51.0815 20.8498H26.694C26.5835 20.8498 26.494 20.9394 26.494 21.0498V62.8934C26.494 63.0039 26.583 63.0935 26.6934 63.0926C38.4058 62.9909 51.2815 53.9587 51.2815 41.6997V21.0498Z" fill="white"/>
<path fill-rule="evenodd" clip-rule="evenodd" d="M3.47552 7.06819L2.71954 7.19168C2.82587 8.67063 3.349 9.4101 4.28892 9.4101C4.82055 9.4101 5.21077 9.21899 5.45958 8.83675C5.71051 8.45452 5.83597 7.98261 5.83597 7.42102C5.83597 7.0329 5.79025 6.7036 5.69881 6.43309C5.60737 6.15965 5.47446 5.93766 5.30009 5.76712C5.12784 5.59365 4.84714 5.42899 4.45798 5.27316C4.09009 5.12909 3.85511 4.99677 3.75304 4.87622C3.65096 4.75567 3.59993 4.60719 3.59993 4.43077C3.59993 4.25142 3.65628 4.10147 3.76899 3.98091C3.88169 3.86036 4.04224 3.80009 4.25064 3.80009C4.45904 3.80009 4.6196 3.86919 4.7323 4.00738C4.84501 4.14557 4.91837 4.38814 4.9524 4.73509L5.72752 4.67776C5.71263 4.04854 5.57866 3.56487 5.32561 3.22674C5.07255 2.88861 4.72061 2.71954 4.26978 2.71954C3.96994 2.71954 3.71795 2.79158 3.5138 2.93565C3.30966 3.07973 3.1491 3.29289 3.03214 3.57516C2.91731 3.85742 2.85989 4.17497 2.85989 4.5278C2.85989 4.83065 2.90455 5.11438 2.99387 5.37901C3.08531 5.64069 3.20758 5.85239 3.36069 6.0141C3.5138 6.17582 3.75516 6.32577 4.08478 6.46396C4.45266 6.6198 4.68446 6.73153 4.78015 6.79915C4.87584 6.86384 4.94708 6.94764 4.99387 7.05055C5.04065 7.15345 5.06404 7.27842 5.06404 7.42543C5.06404 7.67535 4.99706 7.88558 4.86309 8.05611C4.72911 8.22371 4.54517 8.30751 4.31125 8.30751C3.83916 8.30751 3.56059 7.8944 3.47552 7.06819ZM38.0976 6.91823L38.8472 7.31958C38.7302 8.04288 38.5356 8.57213 38.2634 8.90732C37.9912 9.23957 37.6563 9.40569 37.2586 9.40569C36.7589 9.40569 36.3538 9.1396 36.0433 8.60741C35.6861 7.9929 35.5074 7.16375 35.5074 6.11995C35.5074 5.01736 35.6871 4.15439 36.0465 3.53106C36.3591 2.99005 36.7791 2.71954 37.3065 2.71954C37.736 2.71954 38.0954 2.92242 38.3846 3.32818C38.5909 3.61632 38.7419 4.04413 38.8376 4.6116L38.072 4.92033C38.0231 4.57044 37.9253 4.30287 37.7786 4.11764C37.634 3.92946 37.4628 3.83537 37.265 3.83537C36.9822 3.83537 36.7515 4.00591 36.5728 4.34698C36.3942 4.68805 36.3049 5.25111 36.3049 6.03616C36.3049 6.85061 36.3921 7.42984 36.5665 7.77385C36.7408 8.11786 36.9673 8.28987 37.2459 8.28987C37.45 8.28987 37.6265 8.18108 37.7754 7.9635C37.9242 7.74298 38.0316 7.39456 38.0976 6.91823ZM42.7738 2.8298H43.5457V6.33165C43.5457 6.8756 43.5553 7.2299 43.5744 7.39456C43.6084 7.67976 43.6893 7.90028 43.8168 8.05612C43.9466 8.21195 44.1167 8.28987 44.3272 8.28987C44.5058 8.28987 44.6515 8.23547 44.7642 8.12668C44.8769 8.01495 44.9535 7.86206 44.9939 7.668C45.0364 7.471 45.0577 7.05055 45.0577 6.40663V2.8298H45.8328V6.2258C45.8328 7.09318 45.7988 7.72093 45.7307 8.10904C45.6648 8.49421 45.5138 8.80735 45.2778 9.04845C45.0439 9.28661 44.7344 9.40569 44.3495 9.40569C43.9498 9.40569 43.6372 9.3072 43.4117 9.1102C43.1885 8.91026 43.0258 8.63094 42.9237 8.27222C42.8238 7.91057 42.7738 7.24607 42.7738 6.27873V2.8298ZM46.6462 2.8298H48.1805C48.5994 2.8298 48.8939 2.88273 49.0641 2.98858C49.2342 3.09443 49.3777 3.28113 49.4947 3.5487C49.6116 3.81626 49.6701 4.11911 49.6701 4.45724C49.6701 4.7689 49.6201 5.05117 49.5202 5.30403C49.4202 5.55395 49.2905 5.73919 49.131 5.85974C49.3586 5.97147 49.5361 6.16259 49.6637 6.43309C49.7935 6.7036 49.8583 7.0329 49.8583 7.42102C49.8583 7.89146 49.7764 8.28987 49.6127 8.61623C49.449 8.93966 49.2554 9.1396 49.0322 9.21605C48.8769 9.26897 48.5165 9.29543 47.9508 9.29543H46.6462V2.8298ZM47.4181 3.90594V5.40106H47.9285C48.2347 5.40106 48.424 5.39371 48.4963 5.37901C48.6281 5.34961 48.7312 5.27316 48.8057 5.14967C48.8801 5.02324 48.9173 4.8527 48.9173 4.63806C48.9173 4.44695 48.8865 4.29258 48.8248 4.17497C48.7653 4.05442 48.6919 3.97945 48.6047 3.95004C48.5197 3.92064 48.273 3.90594 47.8647 3.90594H47.4181ZM47.4181 6.4772V8.20607H48.1358C48.4505 8.20607 48.6526 8.18402 48.7419 8.13991C48.8312 8.09287 48.9056 8.00319 48.9652 7.87088C49.0268 7.73563 49.0577 7.56509 49.0577 7.35927C49.0577 7.14757 49.0247 6.9741 48.9588 6.83885C48.895 6.70066 48.8089 6.60657 48.7004 6.55658C48.5941 6.50366 48.3751 6.4772 48.0433 6.4772H47.4181ZM39.5298 2.88273V9.29544H42.2283V8.20607H40.3017V2.88273H39.5298ZM31.7849 2.8298V9.29543H32.5058V5.0791L34.0497 9.29543H34.828V2.8298H34.1071V7.14757L32.5377 2.8298H31.7849ZM28.206 9.29543V2.8298H31.0513V3.92358H28.9779V5.35696H30.9046V6.44632H28.9779V8.20607H31.1215V9.29543H28.206ZM25.7945 3.92358V9.29543H26.5664V3.92358H27.702V2.8298H24.6558V3.92358H25.7945ZM21.0736 9.29543V2.8298H21.8264L23.3958 7.14757V2.8298H24.1167V9.29543H23.3384L21.7945 5.0791V9.29543H21.0736ZM17.4947 2.8298V9.29543H20.4101V8.20607H18.2666V6.44632H20.1932V5.35696H18.2666V3.92358H20.34V2.8298H17.4947ZM13.6223 2.8298H15.0353C15.3926 2.8298 15.6616 2.88567 15.8424 2.9974C16.0252 3.10619 16.1932 3.29142 16.3464 3.55311C16.4995 3.81479 16.6196 4.15439 16.7068 4.57191C16.794 4.98942 16.8376 5.50838 16.8376 6.12877C16.8376 6.68742 16.7919 7.17404 16.7004 7.58861C16.609 8.00025 16.4931 8.32662 16.3527 8.56772C16.2124 8.80882 16.0423 8.99112 15.8424 9.11461C15.6446 9.23516 15.3894 9.29543 15.0768 9.29543H13.6223V2.8298ZM14.3942 3.92358V8.20607H14.9747C15.2235 8.20607 15.4032 8.17373 15.5138 8.10904C15.6265 8.04435 15.718 7.94733 15.7881 7.81795C15.8604 7.68564 15.92 7.47835 15.9668 7.19609C16.0135 6.91382 16.0369 6.54188 16.0369 6.08026C16.0369 5.601 16.0125 5.22317 15.9636 4.94679C15.9168 4.67041 15.8424 4.45283 15.7403 4.29405C15.6403 4.13528 15.5181 4.0309 15.3735 3.98092C15.265 3.94269 15.0555 3.92358 14.7451 3.92358H14.3942ZM10.525 2.8298H9.75305V6.27873C9.75305 7.24607 9.80302 7.91057 9.90297 8.27222C10.005 8.63094 10.1677 8.91026 10.391 9.1102C10.6164 9.3072 10.929 9.40569 11.3288 9.40569C11.7137 9.40569 12.0231 9.28661 12.257 9.04845C12.4931 8.80735 12.6441 8.49421 12.71 8.10904C12.778 7.72093 12.8121 7.09318 12.8121 6.2258V2.8298H12.0369V6.40663C12.0369 7.05055 12.0157 7.471 11.9731 7.668C11.9327 7.86206 11.8562 8.01495 11.7435 8.12668C11.6308 8.23547 11.4851 8.28987 11.3065 8.28987C11.0959 8.28987 10.9258 8.21195 10.7961 8.05612C10.6685 7.90028 10.5877 7.67976 10.5537 7.39456C10.5345 7.2299 10.525 6.8756 10.525 6.33165V2.8298ZM7.35113 9.29543V3.92358H6.21237V2.8298H9.25862V3.92358H8.12306V9.29543H7.35113Z" fill="white"/>
<path fill-rule="evenodd" clip-rule="evenodd" d="M24.242 15.9269L25.3363 16.3402C25.1656 17.085 24.8815 17.63 24.4841 17.9752C24.0868 18.3173 23.5978 18.4884 23.0173 18.4884C22.2877 18.4884 21.6963 18.2144 21.2431 17.6663C20.7215 17.0336 20.4607 16.1798 20.4607 15.1049C20.4607 13.9695 20.7231 13.0809 21.2477 12.439C21.7041 11.8819 22.3172 11.6034 23.0871 11.6034C23.7142 11.6034 24.2389 11.8123 24.6611 12.2301C24.9622 12.5268 25.1827 12.9674 25.3224 13.5517L24.2047 13.8696C24.1333 13.5093 23.9905 13.2338 23.7763 13.0431C23.5652 12.8493 23.3153 12.7524 23.0266 12.7524C22.6137 12.7524 22.2769 12.928 22.0161 13.2792C21.7553 13.6304 21.6249 14.2102 21.6249 15.0186C21.6249 15.8573 21.7522 16.4538 22.0068 16.808C22.2613 17.1622 22.592 17.3394 22.9987 17.3394C23.2967 17.3394 23.5544 17.2273 23.7717 17.0033C23.989 16.7762 24.1458 16.4174 24.242 15.9269ZM45.1274 16.2085L46.2311 16.0814C46.3552 16.9321 46.7619 17.3575 47.4511 17.3575C47.7926 17.3575 48.0611 17.2712 48.2567 17.0987C48.4523 16.923 48.5501 16.7066 48.5501 16.4492C48.5501 16.2978 48.5159 16.1692 48.4477 16.0632C48.3794 15.9572 48.2754 15.8709 48.1357 15.8043C47.9959 15.7347 47.6576 15.6196 47.1205 15.4592C46.6393 15.3169 46.2869 15.1624 46.0634 14.9959C45.8399 14.8294 45.6614 14.6114 45.5279 14.3419C45.3975 14.0694 45.3323 13.7773 45.3323 13.4654C45.3323 13.1021 45.4161 12.7751 45.5838 12.4845C45.7545 12.1938 45.9889 11.9743 46.2869 11.8259C46.585 11.6776 46.9528 11.6034 47.3906 11.6034C48.0487 11.6034 48.5625 11.7775 48.932 12.1257C49.3014 12.4739 49.497 12.9719 49.5187 13.6198L48.3871 13.6789C48.3374 13.3216 48.2303 13.0718 48.0658 12.9295C47.9013 12.7872 47.6669 12.7161 47.3626 12.7161C47.0584 12.7161 46.824 12.7781 46.6595 12.9023C46.4949 13.0264 46.4127 13.1808 46.4127 13.3655C46.4127 13.5472 46.4872 13.7001 46.6362 13.8242C46.7852 13.9483 47.1282 14.0846 47.6653 14.2329C48.2334 14.3934 48.6432 14.563 48.8947 14.7416C49.1493 14.9172 49.3433 15.1458 49.4768 15.4274C49.6103 15.7059 49.677 16.045 49.677 16.4447C49.677 17.023 49.4939 17.5089 49.1275 17.9025C48.7643 18.2961 48.1946 18.4929 47.4185 18.4929C46.0463 18.4929 45.2826 17.7314 45.1274 16.2085ZM39.7582 11.7169H40.8851V15.3229C40.8851 15.883 40.8991 16.2479 40.927 16.4174C40.9767 16.7111 41.0947 16.9382 41.2809 17.0987C41.4703 17.2591 41.7187 17.3394 42.026 17.3394C42.2868 17.3394 42.4995 17.2833 42.664 17.1713C42.8285 17.0563 42.9403 16.8988 42.9993 16.699C43.0614 16.4961 43.0924 16.0632 43.0924 15.4001V11.7169H44.224V15.2139C44.224 16.1071 44.1743 16.7535 44.075 17.1532C43.9787 17.5498 43.7583 17.8722 43.4137 18.1205C43.0722 18.3657 42.6205 18.4884 42.0586 18.4884C41.475 18.4884 41.0186 18.3869 40.6895 18.1841C40.3636 17.9782 40.1261 17.6906 39.9771 17.3212C39.8312 16.9488 39.7582 16.2645 39.7582 15.2684V11.7169ZM37.5556 11.7169V18.3748H38.6825V11.7169H37.5556ZM31.9489 18.3748V11.7169H34.3285C34.9369 11.7169 35.3716 11.7775 35.6323 11.8986C35.8931 12.0167 36.1073 12.2241 36.275 12.5208C36.4426 12.8145 36.5264 13.1672 36.5264 13.579C36.5264 14.0997 36.3976 14.5191 36.1399 14.837C35.8854 15.1549 35.5221 15.3547 35.0503 15.4364C35.2924 15.606 35.4926 15.7922 35.651 15.9951C35.8093 16.1949 36.0251 16.5552 36.2983 17.0759L36.9781 18.3748H35.6323L34.8128 16.9261C34.5178 16.4023 34.3176 16.0753 34.212 15.9451C34.1065 15.8119 33.9947 15.7211 33.8768 15.6726C33.7588 15.6211 33.5694 15.5954 33.3086 15.5954H33.0758V18.3748H31.9489ZM33.0758 14.5327H33.914C34.4263 14.5327 34.7522 14.5115 34.8919 14.4691C35.0316 14.4237 35.1449 14.3344 35.2319 14.2012C35.3188 14.0679 35.3623 13.8908 35.3623 13.6698C35.3623 13.4579 35.3188 13.2883 35.2319 13.1611C35.1449 13.0309 35.027 12.9416 34.878 12.8932C34.7724 12.8599 34.4666 12.8432 33.9606 12.8432H33.0758V14.5327ZM27.4179 11.7169H26.291V15.2684C26.291 16.2645 26.3639 16.9488 26.5098 17.3212C26.6588 17.6906 26.8963 17.9782 27.2223 18.1841C27.5514 18.3869 28.0077 18.4884 28.5914 18.4884C29.1533 18.4884 29.605 18.3657 29.9465 18.1205C30.2911 17.8722 30.5115 17.5498 30.6077 17.1532C30.7071 16.7535 30.7568 16.1071 30.7568 15.2139V11.7169H29.6252V15.4001C29.6252 16.0632 29.5941 16.4961 29.532 16.699C29.473 16.8988 29.3613 17.0563 29.1967 17.1713C29.0322 17.2833 28.8196 17.3394 28.5588 17.3394C28.2514 17.3394 28.0031 17.2591 27.8137 17.0987C27.6274 16.9382 27.5095 16.7111 27.4598 16.4174C27.4318 16.2479 27.4179 15.883 27.4179 15.3229V11.7169ZM15.017 11.7169V18.3748H16.144V15.5954H16.3768C16.6376 15.5954 16.8269 15.6211 16.9449 15.6726C17.0629 15.7211 17.1747 15.8119 17.2802 15.9451C17.3858 16.0753 17.586 16.4023 17.8809 16.9261L18.7005 18.3748H20.0463L19.3664 17.0759C19.0932 16.5552 18.8775 16.1949 18.7191 15.9951C18.5608 15.7922 18.3606 15.606 18.1184 15.4364C18.5903 15.3547 18.9535 15.1549 19.2081 14.837C19.4658 14.5191 19.5946 14.0997 19.5946 13.579C19.5946 13.1672 19.5108 12.8145 19.3431 12.5208C19.1755 12.2241 18.9613 12.0167 18.7005 11.8986C18.4397 11.7775 18.0051 11.7169 17.3966 11.7169H15.017ZM16.9822 14.5327H16.144V12.8432H17.0287C17.5348 12.8432 17.8406 12.8599 17.9461 12.8932C18.0951 12.9416 18.2131 13.0309 18.3 13.1611C18.387 13.2883 18.4304 13.4579 18.4304 13.6698C18.4304 13.8908 18.387 14.0679 18.3 14.2012C18.2131 14.3344 18.0998 14.4237 17.9601 14.4691C17.8204 14.5115 17.4944 14.5327 16.9822 14.5327ZM9.8015 18.3748V11.7169H13.9553V12.8432H10.9284V14.3192H13.7411V15.441H10.9284V17.2531H14.0577V18.3748H9.8015ZM3.26346 11.7169V18.3748H4.31588V13.1339L5.41952 18.3748H6.50919L7.62215 13.1339V18.3748H8.66991V11.7169H6.97487L5.96901 16.2585L4.95385 11.7169H3.26346Z" fill="white"/>
<path fill-rule="evenodd" clip-rule="evenodd" d="M3.2 29.5816C3.08954 29.5816 3 29.6711 3 29.7816V29.9967C3 30.1071 3.08954 30.1967 3.2 30.1967H8.22967C8.32673 30.1967 8.40541 30.2753 8.40541 30.3724V30.3724C8.40541 30.4694 8.32673 30.5481 8.22967 30.5481H4.1009C3.99044 30.5481 3.9009 30.6377 3.9009 30.7481V30.9632C3.9009 31.0736 3.99044 31.1632 4.1009 31.1632H8.48012C8.54153 31.1632 8.5957 31.2185 8.61516 31.2768V31.2768C8.65092 31.3839 8.58268 31.5146 8.46977 31.5146H5.18198C5.07153 31.5146 4.98198 31.6042 4.98198 31.7146V31.9297C4.98198 32.0402 5.07152 32.1297 5.18198 32.1297H9.12967C9.18424 32.1297 9.23571 32.1551 9.26897 32.1983V32.1983C9.35784 32.3139 9.27546 32.4812 9.12967 32.4812H5.9027C5.79225 32.4812 5.7027 32.5707 5.7027 32.6812V32.8962C5.7027 33.0067 5.79225 33.0962 5.9027 33.0962H10.4345C10.4628 33.0962 10.491 33.1024 10.5169 33.1139C11.1968 33.4173 11.633 33.5424 12.364 33.6084C12.4684 33.6178 12.5495 33.7046 12.5495 33.8094V37.5531C12.5495 37.6636 12.46 37.7531 12.3495 37.7531H11.083C11.0408 37.7531 10.9988 37.7393 10.9648 37.7142C9.72071 36.7972 9.71959 36.3019 10.8562 35.5175C10.9014 35.4863 10.9327 35.4379 10.9431 35.384C10.9816 35.183 11.0324 35.0286 11.1447 34.8258C11.2107 34.7068 11.1531 34.5527 11.0194 34.5276C10.7991 34.4864 10.6124 34.481 10.3443 34.4988C10.3135 34.5008 10.2828 34.5107 10.2562 34.5266C8.2788 35.7143 7.98319 36.9036 9.69371 38.3318C9.7775 38.4018 9.79312 38.5259 9.72901 38.6143C8.80314 39.8903 8.88929 40.6275 10.0464 41.8113C10.0903 41.8562 10.1117 41.92 10.1035 41.9823C9.90152 43.5079 10.1445 44.2433 11.1034 45.215C11.1603 45.2727 11.178 45.3587 11.1488 45.4343C10.8598 46.1813 10.8045 46.6815 10.9627 47.1928C11.0265 47.3991 11.3355 47.308 11.3943 47.1002C11.4963 46.7406 11.7475 46.4228 12.2438 46.0518C12.3717 45.9562 12.5495 46.0508 12.5495 46.2105V48.8C12.5495 48.9105 12.6391 49 12.7495 49H13.1604C13.2708 49 13.3604 48.9105 13.3604 48.8V46.1591C13.3604 46.0108 13.5167 45.9142 13.6434 45.9914C14.1196 46.2818 14.3567 46.6157 14.462 47.1767C14.5001 47.3796 14.7736 47.4329 14.8332 47.2353C15.0006 46.6805 14.9633 46.1762 14.747 45.4285C14.7259 45.3556 14.747 45.2765 14.8015 45.2238C15.8989 44.1624 16.1569 43.4338 15.7394 42.0046C15.7177 41.9303 15.7398 41.8492 15.7961 41.7961C16.9832 40.6773 17.0769 39.9126 16.1074 38.6289C16.0367 38.5353 16.0572 38.4005 16.1525 38.332C17.9315 37.0524 17.7098 35.6252 15.6486 34.5212C15.6253 34.5087 15.5991 34.5008 15.5727 34.4986C15.317 34.4772 15.1386 34.4811 14.9534 34.5122C14.8028 34.5374 14.7577 34.7217 14.8452 34.8469C14.9476 34.9936 15.0008 35.1425 15.0543 35.3848C15.0661 35.4382 15.0991 35.4853 15.1449 35.5151C16.3134 36.275 16.2022 36.9052 14.9416 37.7213C14.9096 37.7419 14.8717 37.7531 14.8337 37.7531H13.5604C13.4499 37.7531 13.3604 37.6636 13.3604 37.5531V33.8144C13.3604 33.7076 13.4447 33.6199 13.5513 33.6127C14.258 33.5653 14.6957 33.4398 15.3917 33.1153C15.4184 33.1029 15.4477 33.0962 15.4771 33.0962H20.0072C20.1177 33.0962 20.2072 33.0067 20.2072 32.8962V32.6812C20.2072 32.5707 20.1177 32.4812 20.0072 32.4812H16.8748C16.7469 32.4812 16.6732 32.3233 16.738 32.213V32.213C16.7645 32.1679 16.8166 32.1297 16.8689 32.1297H20.6378C20.7483 32.1297 20.8378 32.0402 20.8378 31.9297V31.7146C20.8378 31.6042 20.7483 31.5146 20.6378 31.5146H17.5214C17.4064 31.5146 17.3456 31.3834 17.3847 31.2753V31.2753C17.407 31.2135 17.4619 31.1632 17.5275 31.1632H21.809C21.9195 31.1632 22.009 31.0736 22.009 30.9632V30.7481C22.009 30.6377 21.9195 30.5481 21.809 30.5481H17.7703C17.6733 30.5481 17.5946 30.4694 17.5946 30.3724V30.3724C17.5946 30.2753 17.6733 30.1967 17.7703 30.1967H22.8C22.9105 30.1967 23 30.1071 23 29.9967V29.7816C23 29.6711 22.9105 29.5816 22.8 29.5816H16.003C15.9291 29.5816 15.8613 29.6226 15.8258 29.6875C15.2363 30.7646 14.7211 31.2066 13.5978 31.4645C13.4752 31.4927 13.3604 31.3978 13.3604 31.272V29.9653C13.3604 29.8914 13.4021 29.8244 13.4642 29.7842C14.3305 29.2232 14.0415 28 13 28C11.9545 28 11.6673 29.1505 12.4644 29.7825C12.5162 29.8236 12.5495 29.8847 12.5495 29.9508V31.2714C12.5495 31.3974 12.4343 31.4923 12.3115 31.4643C11.1777 31.2056 10.6635 30.7921 10.1703 29.7019C10.1374 29.6292 10.0655 29.5816 9.98567 29.5816H3.2ZM13.5604 41.3512C13.45 41.3562 13.3604 41.2661 13.3604 41.1556V39.0075C13.3604 38.8971 13.4499 38.8075 13.5604 38.8075H14.9736C15.0357 38.8075 15.0949 38.8362 15.1305 38.8871C15.84 39.9013 15.4932 41.2638 13.5604 41.3512ZM12.3495 38.8075C12.46 38.8075 12.5495 38.8971 12.5495 39.0075V41.1556C12.5495 41.2661 12.4595 41.3562 12.3492 41.3511C10.6516 41.2722 10.0313 40.1826 10.7803 38.902C10.8149 38.8429 10.8794 38.8075 10.9479 38.8075H12.3495ZM12.3495 42.4979C12.46 42.4979 12.5495 42.5875 12.5495 42.6979V44.5824C12.5495 44.6929 12.4596 44.7838 12.35 44.7702C11.4015 44.6532 10.7421 43.7085 11.3227 42.5984C11.3556 42.5355 11.422 42.4979 11.493 42.4979H12.3495ZM13.5599 44.7692C13.4504 44.7839 13.3604 44.6929 13.3604 44.5824V42.6979C13.3604 42.5875 13.4499 42.4979 13.5604 42.4979H14.3229C14.396 42.4979 14.464 42.5379 14.4963 42.6034C15.0749 43.7787 14.4289 44.6526 13.5599 44.7692ZM10.4775 34.7657C10.6267 34.7657 10.7477 34.8837 10.7477 35.0293C10.7477 35.1749 10.6267 35.2929 10.4775 35.2929C10.3282 35.2929 10.2072 35.1749 10.2072 35.0293C10.2072 34.8837 10.3282 34.7657 10.4775 34.7657ZM15.7027 35.0293C15.7027 34.8837 15.5817 34.7657 15.4324 34.7657C15.2832 34.7657 15.1622 34.8837 15.1622 35.0293C15.1622 35.1749 15.2832 35.2929 15.4324 35.2929C15.5817 35.2929 15.7027 35.1749 15.7027 35.0293Z" fill="white"/>
<path fill-rule="evenodd" clip-rule="evenodd" d="M41.105 26.1625C39.8712 27.9084 38.0309 28.7539 33.2226 30.0832C31.5301 30.5994 30.7499 31.1221 30.5373 32.6006C30.5368 32.6039 30.5368 32.6075 30.5371 32.6109C30.7972 34.9331 31.9168 35.2196 34.9217 35.4064C34.9402 35.4075 34.9552 35.4243 34.9549 35.4443C34.9496 35.8324 34.95 36.0538 34.9552 36.4178C34.9554 36.4293 34.9504 36.4405 34.9421 36.4478C30.8903 39.9888 30.8866 43.9923 33.9859 46.6056C33.9959 46.614 34.0011 46.628 33.999 46.6415C33.9416 47.0102 33.8845 47.212 33.7513 47.5324C33.7459 47.5454 33.7336 47.554 33.7205 47.5545C31.2257 47.6526 30.1868 49.2527 30.0167 50.1696C29.8434 51.1039 31.0564 51.8513 31.9229 51.7578C32.6667 51.6776 33.8214 50.2807 34.3375 48.9837C34.3441 48.9672 34.3609 48.958 34.3772 48.9621C34.7163 49.0477 34.8819 49.1306 35.1092 49.3129C35.1209 49.3224 35.1258 49.3388 35.1214 49.3539C35.0606 49.5624 34.9947 49.7698 34.9297 49.9747C34.7057 50.6802 34.4914 51.3555 34.5222 51.9447C34.5856 53.1537 35.2724 54 35.9085 54C36.9483 54 37.6548 53.0515 37.7281 51.9447C37.8142 50.6455 37.4815 49.8985 36.4494 48.9738C36.4372 48.9629 36.433 48.9442 36.4403 48.9291C36.4765 48.8545 36.5138 48.8179 36.5841 48.7779C36.5949 48.7718 36.6083 48.7728 36.6186 48.78C37.9979 49.7416 38.5118 50.0762 39.461 50.0762C40.674 50.0761 41.4538 49.0485 41.4538 48.2077C41.4538 47.3669 40.4806 46.5332 39.461 46.2457C38.257 45.9063 37.5381 46.3793 36.4483 47.2574C36.4365 47.2669 36.4201 47.2674 36.4078 47.2586C36.2891 47.173 36.1825 47.0996 36.0825 47.0307C35.7617 46.8097 35.5091 46.6357 35.1417 46.259C35.1336 46.2508 35.1297 46.2385 35.1311 46.2266C35.5625 42.7786 35.7374 40.7989 35.9077 37.2018C35.9082 37.1904 35.9137 37.1795 35.9224 37.1729C36.3573 36.8407 36.6303 36.6906 37.0446 36.5728C37.081 36.5624 37.1032 36.6134 37.0732 36.6381C36.6756 36.9656 36.4885 37.203 36.3429 37.6473C36.3421 37.6495 36.3416 37.6519 36.3413 37.6542C36.1824 38.7894 36.6012 39.4241 37.2918 39.7047C37.2926 39.7051 37.2934 39.7054 37.2942 39.7056C37.2955 39.706 37.2969 39.7064 37.2982 39.7066C39.0207 40.0218 39.9729 38.4093 39.2101 36.2744C39.2048 36.2595 39.2087 36.2422 39.2199 36.2318C39.2725 36.1832 39.3211 36.1379 39.3668 36.0953C39.6532 35.8281 39.8274 35.6656 40.1867 35.4418C40.2102 35.4271 40.2394 35.4465 40.2383 35.4758C40.1959 36.6305 40.1569 37.3019 40.0687 38.4753C40.068 38.4855 40.0632 38.4952 40.0558 38.5017C37.9669 40.3176 37.0348 41.6707 36.9483 43.1627C36.9483 44.3773 37.7281 45.7786 38.8545 45.7786C40.5869 45.5738 40.6716 44.0013 40.8775 40.1741C40.8948 39.8526 40.913 39.5153 40.933 39.1616C40.9336 39.1515 40.9381 39.1416 40.9453 39.1351C41.2314 38.8732 41.414 38.7291 41.7404 38.5281C41.7651 38.5129 41.7952 38.5354 41.7917 38.5658C41.5465 40.6611 41.544 41.7843 41.8 43.6266C41.8002 43.6287 41.8007 43.6308 41.8014 43.6328C41.8937 43.911 42.8375 44.0941 42.8401 43.4457C42.8401 43.444 42.84 43.4421 42.8398 43.4403C42.5487 41.2365 42.5954 39.9608 42.8384 37.6669C42.8395 37.6566 42.8443 37.6473 42.8519 37.6411C43.7241 36.9387 45.1564 35.9512 45.2602 35.8797C45.2645 35.8767 45.2675 35.8735 45.27 35.8686C45.3589 35.6923 45.2866 34.9366 44.6664 35.0337C44.6621 35.0343 44.6577 35.036 44.6539 35.0384C44.1213 35.3746 43.8192 35.5916 43.3301 36.0133C43.3073 36.0329 43.2736 36.0153 43.2741 35.9839C43.2846 35.3839 43.4005 35.05 43.6174 34.4808C43.6191 34.4765 43.62 34.4717 43.62 34.467C43.6243 34.093 43.5092 33.9715 43.1001 33.9137C42.5964 33.9114 42.3576 34.6352 41.9763 36.8877C41.9747 36.8975 41.9694 36.9065 41.9618 36.9121C41.6894 37.1158 41.5234 37.2542 41.2594 37.4968C41.2356 37.5186 41.1991 37.4979 41.2021 37.4644C41.3154 36.1588 41.3142 35.439 41.2807 34.1995C41.2806 34.1959 41.28 34.1922 41.2789 34.1887C41.1911 33.9127 40.9343 33.7292 40.5925 33.8189C40.5891 33.8198 40.5858 33.8212 40.5829 33.8231C39.8046 34.3286 39.3684 34.668 38.6055 35.398C38.5986 35.4046 38.5892 35.4081 38.58 35.4074C38.3165 35.3893 38.1421 35.3859 37.8991 35.3982C37.8613 35.4001 37.8474 35.3434 37.8809 35.3246C38.5253 34.9636 38.7197 34.7446 38.8545 34.3808C39.1174 33.2198 38.9508 32.3728 38.6226 31.8975C38.6046 31.8714 38.579 31.8505 38.5504 31.8368C36.5081 30.8504 35.3094 31.8785 35.1313 34.3435C35.1299 34.3639 35.1129 34.3798 35.094 34.3786C32.4256 34.2072 31.6318 33.8258 31.5766 32.6126C31.5764 32.6081 31.577 32.6034 31.5783 32.5992C31.8664 31.6505 32.6174 31.2533 34.7822 30.7372C39.2089 29.4629 40.8663 28.5985 41.9737 26.7199C42.2331 26.2538 41.5707 25.7325 41.11 26.1568C41.1082 26.1585 41.1065 26.1604 41.105 26.1625ZM37.3815 38.1178C37.3614 37.7274 37.8566 37.3702 38.141 37.1981C38.2425 37.1367 38.3691 37.1874 38.399 37.3022C38.4578 37.5277 38.5215 37.8834 38.4213 38.1178C38.2906 38.4232 38.126 38.7005 37.8147 38.6783C37.4771 38.6543 37.4003 38.4821 37.3815 38.1178ZM33.9051 44.8975C34.0074 45.0313 34.203 44.9673 34.2211 44.7999C34.4731 42.4716 34.6102 40.9803 34.7557 38.5652C34.7661 38.3926 34.5764 38.2982 34.4554 38.4218C33.9304 38.9582 32.9501 40.1765 32.876 41.8548C32.814 43.2589 33.5064 44.3758 33.9051 44.8975ZM36.0801 35.5089C36.038 35.5058 35.9933 35.5371 35.9922 35.5793C35.9915 35.6063 35.9913 35.631 35.9915 35.6557C35.9919 35.7131 36.0548 35.7471 36.1052 35.7196C36.1089 35.7176 36.1126 35.7156 36.1164 35.7136C36.1921 35.6726 36.166 35.5151 36.0801 35.5089V35.5089ZM36.3621 34.3556C36.2543 34.3498 36.1714 34.2577 36.1778 34.1499C36.234 33.204 36.4295 32.9025 36.9281 32.7069C36.9414 32.7017 36.9555 32.698 36.9696 32.696C37.3656 32.638 37.5598 32.6691 37.8147 32.886C37.9833 33.0678 37.9879 33.6917 37.8284 33.9835C37.8197 33.9994 37.8079 34.0135 37.7944 34.0256C37.4461 34.3366 37.0809 34.3947 36.3621 34.3556ZM39.3743 44.1904C39.5455 43.6366 39.7009 41.6986 39.7699 40.7316C39.7833 40.5441 39.5598 40.4513 39.4387 40.5949C38.8891 41.2461 37.9259 42.4926 37.988 43.1627C38.0438 43.7637 38.1143 44.2534 38.5945 44.5641C39.0278 44.8444 39.2877 44.4707 39.3743 44.1904ZM34.9329 47.9001C34.8461 47.86 34.792 47.765 34.825 47.6753C34.8259 47.6728 34.8268 47.6704 34.8278 47.668C34.8729 47.5497 35.0288 47.5536 35.1158 47.6456C35.265 47.8034 35.4085 47.9114 35.6119 48.0388C35.672 48.0764 35.6716 48.1657 35.6247 48.2189V48.2189C35.585 48.264 35.522 48.2691 35.4743 48.2326C35.2776 48.0818 35.1311 47.9917 34.9329 47.9001ZM31.663 50.6367C32.2642 50.6367 32.9959 49.3929 33.1793 48.9225C33.2135 48.8347 33.1562 48.7544 33.0621 48.7596C32.4925 48.7911 31.2125 49.3377 31.0564 50.263C31.0409 50.3549 31.1431 50.6367 31.663 50.6367ZM36.1947 50.333C36.11 50.2102 35.9362 50.2423 35.8909 50.3844C35.7627 50.7866 35.562 51.5019 35.562 52.0381C35.562 52.4118 35.7353 52.7855 36.0818 52.7855C36.523 52.7855 36.6884 52.2249 36.6884 51.7578C36.6884 51.1547 36.3995 50.6295 36.1947 50.333ZM39.461 48.9551C38.6712 48.9551 38.444 48.7199 37.6545 48.1531C37.5563 48.0826 37.5401 47.9411 37.6237 47.8538C37.9545 47.5081 38.2653 47.2734 38.9411 47.2734C39.3743 47.2734 40.4141 47.9274 40.3274 48.3011C40.2408 48.6748 39.9809 48.9551 39.461 48.9551Z" fill="white"/>
<path d="M45.6238 41.3238C45.6163 41.3043 45.6124 41.2832 45.6116 41.2623C45.5554 39.6928 45.5969 38.9661 45.6994 37.4968C45.7693 36.4957 45.778 35.9021 45.9594 34.9413C46.0028 34.7338 46.1145 34.6717 46.4792 34.6611C46.9126 34.7027 47.0108 34.8145 46.9991 35.1282C46.7877 37.1922 46.7186 38.536 46.6525 41.2008C46.6348 41.5048 46.5245 41.6094 46.1326 41.6679C45.8507 41.6971 45.7367 41.6202 45.6238 41.3238Z" fill="white"/>
<path d="M45.9594 42.6956C46.3407 42.6683 46.6511 43.0283 46.6525 43.4403C46.6539 43.8538 46.342 44.218 45.9594 44.1904C45.6005 44.1646 45.3528 43.8308 45.3528 43.443C45.3529 43.0552 45.6005 42.7214 45.9594 42.6956Z" fill="white"/>
</svg>
